<mxfile host="app.diagrams.net" modified="2023-08-02T01:16:52.601Z" agent="Mozilla/5.0 (Macintosh; Intel Mac OS X 10_15_7) AppleWebKit/537.36 (KHTML, like Gecko) Chrome/115.0.0.0 Safari/537.36" version="21.5.2" etag="j_MHXx37IEp9dMnGKlP3" type="github">
  <diagram name="第 1 页" id="Hm54rfk-c7UBAKkkjERP">
    <mxGraphModel>
      <root>
        <mxCell id="0" />
        <mxCell id="1" parent="0" />
      </root>
    </mxGraphModel>
  </diagram>
</mxfile>
